<svg id="Icon_Coin" data-name="Icon / Coin" xmlns="http://www.w3.org/2000/svg" xmlns:xlink="http://www.w3.org/1999/xlink" width="24" height="24" viewBox="0 0 24 24">
  <defs>
    <linearGradient id="linear-gradient" x1="0.5" y1="0.222" x2="0.5" y2="1.43" gradientUnits="objectBoundingBox">
      <stop offset="0.017" stop-color="#fff" stop-opacity="0"/>
      <stop offset="1" stop-color="#f9a825"/>
    </linearGradient>
    <linearGradient id="linear-gradient-2" x1="0.5" y1="0.168" x2="0.5" y2="1.649" xlink:href="#linear-gradient"/>
    <radialGradient id="radial-gradient" cx="0.5" cy="0.5" r="0.38" gradientTransform="translate(-0.724 -0.161) scale(2.535 1.322)" xlink:href="#linear-gradient"/>
  </defs>
  <g id="Group_10101" data-name="Group 10101" transform="translate(3.977 2.893)">
    <path id="Path_37" data-name="Path 37" d="M1030.046-81.944H1028.5v.209c-3.263.889-5.707,4.534-5.707,8.9s2.444,8.008,5.707,8.9v.209h1.544c4.005,0,7.251-4.077,7.251-9.106S1034.051-81.944,1030.046-81.944Z" transform="translate(-1021.251 81.944)" fill="#fdd835"/>
    <g id="Group_10100" data-name="Group 10100" transform="translate(9.212 0.927)">
      <path id="Path_38" data-name="Path 38" d="M1033.829-80.608h-3.366v-.409h2.775A6.847,6.847,0,0,1,1033.829-80.608Z" transform="translate(-1030.463 81.017)" fill="#fbc02d"/>
      <path id="Path_39" data-name="Path 39" d="M1035.088-79.381h-4.625v-.409h4.265C1034.853-79.659,1034.972-79.524,1035.088-79.381Z" transform="translate(-1030.463 81.017)" fill="#fbc02d"/>
      <path id="Path_40" data-name="Path 40" d="M1035.932-78.154h-5.469v-.409h5.221C1035.77-78.431,1035.854-78.293,1035.932-78.154Z" transform="translate(-1030.463 81.017)" fill="#fbc02d"/>
      <path id="Path_41" data-name="Path 41" d="M1036.525-76.927h-6.062v-.409h5.888C1036.412-77.2,1036.471-77.066,1036.525-76.927Z" transform="translate(-1030.463 81.017)" fill="#fbc02d"/>
      <path id="Path_42" data-name="Path 42" d="M1036.93-75.7h-6.467v-.409h6.351C1036.857-75.975,1036.894-75.839,1036.93-75.7Z" transform="translate(-1030.463 81.017)" fill="#fbc02d"/>
      <path id="Path_43" data-name="Path 43" d="M1037.181-74.473h-6.718v-.409h6.651C1037.138-74.748,1037.161-74.611,1037.181-74.473Z" transform="translate(-1030.463 81.017)" fill="#fbc02d"/>
      <path id="Path_44" data-name="Path 44" d="M1037.289-73.246h-6.826v-.409h6.8C1037.277-73.52,1037.285-73.384,1037.289-73.246Z" transform="translate(-1030.463 81.017)" fill="#fbc02d"/>
      <path id="Path_45" data-name="Path 45" d="M1037.289-72.428c0,.137-.012.273-.022.409h-6.8v-.409Z" transform="translate(-1030.463 81.017)" fill="#fbc02d"/>
      <path id="Path_46" data-name="Path 46" d="M1037.181-71.2c-.02.137-.043.274-.067.409h-6.651V-71.2Z" transform="translate(-1030.463 81.017)" fill="#fbc02d"/>
      <path id="Path_47" data-name="Path 47" d="M1036.93-69.975c-.036.14-.073.275-.116.409h-6.351v-.409Z" transform="translate(-1030.463 81.017)" fill="#fbc02d"/>
      <path id="Path_48" data-name="Path 48" d="M1036.525-68.748c-.054.139-.113.275-.174.409h-5.888v-.409Z" transform="translate(-1030.463 81.017)" fill="#fbc02d"/>
      <path id="Path_49" data-name="Path 49" d="M1035.932-67.521c-.078.139-.162.277-.248.409h-5.221v-.409Z" transform="translate(-1030.463 81.017)" fill="#fbc02d"/>
      <path id="Path_50" data-name="Path 50" d="M1035.088-66.294c-.116.143-.235.278-.36.409h-4.265v-.409Z" transform="translate(-1030.463 81.017)" fill="#fbc02d"/>
      <path id="Path_51" data-name="Path 51" d="M1033.829-65.067a6.629,6.629,0,0,1-.591.409h-2.775v-.409Z" transform="translate(-1030.463 81.017)" fill="#fbc02d"/>
    </g>
    <path id="Path_52" data-name="Path 52" d="M1030.046-81.944H1028.5v.209c-3.263.889-5.707,4.534-5.707,8.9s2.444,8.008,5.707,8.9v.209h1.544c4.005,0,7.251-4.077,7.251-9.106S1034.051-81.944,1030.046-81.944Z" transform="translate(-1021.251 81.944)" fill="url(#linear-gradient)" style="mix-blend-mode: multiply;isolation: isolate"/>
    <ellipse id="Ellipse_13" data-name="Ellipse 13" cx="7.251" cy="9.107" rx="7.251" ry="9.107" fill="#fbc02d"/>
    <ellipse id="Ellipse_14" data-name="Ellipse 14" cx="6.354" cy="8.306" rx="6.354" ry="8.306" transform="translate(0.897 0.801)" fill="#f9a825"/>
    <ellipse id="Ellipse_15" data-name="Ellipse 15" cx="6.354" cy="8.306" rx="6.354" ry="8.306" transform="translate(0.897 0.801)" fill="url(#linear-gradient-2)" style="mix-blend-mode: multiply;isolation: isolate"/>
    <path id="Path_53" data-name="Path 53" d="M1022.543-72.837c0-4.5,2.739-8.163,6.157-8.3-.066,0-.132-.006-.2-.006-3.51,0-6.354,3.718-6.354,8.306s2.844,8.305,6.354,8.305c.066,0,.132,0,.2-.006C1025.282-64.675,1022.543-68.337,1022.543-72.837Z" transform="translate(-1021.251 81.944)" fill="url(#radial-gradient)" style="mix-blend-mode: multiply;isolation: isolate"/>
    <g id="Group_10095" data-name="Group 10095" transform="translate(3.901 4.871)">
      <path id="Path_33" data-name="Path 33" d="M1028.736-68.612a3.37,3.37,0,0,1-.482,0,2.913,2.913,0,0,1-.456-.066,2.817,2.817,0,0,1-.429-.137,2.7,2.7,0,0,1-.4-.206,3.146,3.146,0,0,1-.371-.267,3.167,3.167,0,0,1-.334-.321,3.559,3.559,0,0,1-.3-.376,4.236,4.236,0,0,1-.257-.429,4.416,4.416,0,0,1-.214-.477,4.864,4.864,0,0,1-.161-.515,5.524,5.524,0,0,1-.11-.554c-.029-.192-.048-.389-.06-.592-.008-.152-.011-.3-.009-.449s.01-.291.024-.432.031-.281.055-.417.052-.27.087-.4.074-.258.118-.381.091-.243.144-.359.11-.229.171-.337a3.151,3.151,0,0,1,.2-.314c.071-.1.146-.2.224-.288a3.388,3.388,0,0,1,.248-.259,3.405,3.405,0,0,1,.562-.43,3.085,3.085,0,0,1,.64-.3,3.2,3.2,0,0,1,.346-.091,3.192,3.192,0,0,1,.364-.054,2.7,2.7,0,0,1,.337-.014,2.691,2.691,0,0,1,.335.03,2.922,2.922,0,0,1,.334.072,3.245,3.245,0,0,1,.331.115,2.735,2.735,0,0,1,.612.351,2.9,2.9,0,0,1,.27.236,3.073,3.073,0,0,1,.248.273l-.936,1.557a2.149,2.149,0,0,0-.145-.165,1.947,1.947,0,0,0-.155-.145,1.829,1.829,0,0,0-.164-.126,1.572,1.572,0,0,0-.173-.1,1.308,1.308,0,0,0-.378-.132,1.288,1.288,0,0,0-.205-.023,1.669,1.669,0,0,0-.451.045,1.533,1.533,0,0,0-.429.182,1.816,1.816,0,0,0-.194.141,1.9,1.9,0,0,0-.176.171,1.965,1.965,0,0,0-.155.2,2.168,2.168,0,0,0-.133.228,2.428,2.428,0,0,0-.112.255,2.26,2.26,0,0,0-.087.279,2.771,2.771,0,0,0-.056.3,3.023,3.023,0,0,0-.026.322c0,.11,0,.225,0,.343a3.576,3.576,0,0,0,.058.484,2.686,2.686,0,0,0,.12.43,2.074,2.074,0,0,0,.182.373,1.847,1.847,0,0,0,.242.315,1.673,1.673,0,0,0,.291.246,1.489,1.489,0,0,0,.328.166,1.577,1.577,0,0,0,.365.086,1.941,1.941,0,0,0,.4.006,1.488,1.488,0,0,0,.209-.032,1.384,1.384,0,0,0,.2-.058,1.361,1.361,0,0,0,.192-.084,1.591,1.591,0,0,0,.184-.113,2,2,0,0,0,.172-.133,2.132,2.132,0,0,0,.3-.312,2.157,2.157,0,0,0,.123-.179l.894,1.537a1.807,1.807,0,0,1-.117.17,2.069,2.069,0,0,1-.136.163c-.049.053-.1.1-.157.155s-.115.1-.177.148-.127.093-.193.136-.133.085-.2.125-.14.076-.213.111-.147.067-.223.1-.152.058-.228.082-.155.046-.233.065-.156.033-.235.045S1028.816-68.618,1028.736-68.612Z" transform="translate(-1025.152 77.073)" fill="#fdd835"/>
    </g>
  </g>
  <rect id="Rectangle_2404" data-name="Rectangle 2404" width="24" height="24" fill="none"/>
</svg>
