<svg id="icon_Withdrawal" data-name="icon / Withdrawal" xmlns="http://www.w3.org/2000/svg" xmlns:xlink="http://www.w3.org/1999/xlink" width="32" height="32" viewBox="0 0 32 32">
  <defs>
    <linearGradient id="linear-gradient" x1="0.5" x2="0.5" y2="1" gradientUnits="objectBoundingBox">
      <stop offset="0" stop-color="#603fcf"/>
      <stop offset="1" stop-color="#8259d1"/>
    </linearGradient>
  </defs>
  <circle id="Ellipse_83" data-name="Ellipse 83" cx="16" cy="16" r="16" fill="url(#linear-gradient)"/>
  <rect id="Rectangle_1264" data-name="Rectangle 1264" width="24" height="24" transform="translate(4 4)" fill="none"/>
  <g id="Group_2407" data-name="Group 2407" transform="translate(7.697 9.492)">
    <path id="Path_556" data-name="Path 556" d="M5986,8980.788a1.35,1.35,0,0,0-.374-.976,3.3,3.3,0,0,0-1.254-.7,10.33,10.33,0,0,1-1.354-.571,2.778,2.778,0,0,1-1.625-2.575,2.649,2.649,0,0,1,.7-1.9,3,3,0,0,1,1.906-.884v-1.519h1.114v1.532a2.734,2.734,0,0,1,1.87,1.024,3.52,3.52,0,0,1,.662,2.218h-1.685a2.188,2.188,0,0,0-.394-1.384,1.274,1.274,0,0,0-1.067-.5,1.448,1.448,0,0,0-1.044.362,1.375,1.375,0,0,0-.377,1.037,1.291,1.291,0,0,0,.374.968,3.57,3.57,0,0,0,1.263.692,11,11,0,0,1,1.4.607,3.517,3.517,0,0,1,.853.637,2.456,2.456,0,0,1,.542.826,2.821,2.821,0,0,1,.189,1.083,2.593,2.593,0,0,1-.717,1.9,3.176,3.176,0,0,1-2.009.868v1.354h-1.1v-1.354a2.962,2.962,0,0,1-2.869-3.051c0-.05,0-.1.009-.151h1.69a1.96,1.96,0,0,0,.44,1.354,1.62,1.62,0,0,0,1.249.478,1.706,1.706,0,0,0,1.209-.382A1.315,1.315,0,0,0,5986,8980.788Z" transform="translate(-5980.995 -8971.671)" fill="#fff"/>
  </g>
  <path id="Path_563" data-name="Path 563" d="M5995.4,8975.342l-3.229-3.567a1.02,1.02,0,0,0-1.467,0l-3.227,3.567a.988.988,0,1,0,1.465,1.325l1.5-1.652v8.893a.988.988,0,1,0,1.977,0v-8.915l1.517,1.675a.982.982,0,0,0,.732.326.988.988,0,0,0,.734-1.651Z" transform="translate(-5971.35 -8962.18)" fill="#fff"/>
</svg>
